<?xml version="1.0" encoding="UTF-8"?>
<svg id="Layer_1" data-name="Layer 1" xmlns="http://www.w3.org/2000/svg" viewBox="0 0 1866 266">
  <defs>
    <style>
      .cls-1 {
        fill: hsl(0, 0%, 15%);
      }
    </style>
  </defs>
  <path class="cls-1" d="m55.38,17.92l73.34,198.02L202.39,17.92h42.37v235.64h-29.34V57.52h-.65l-72.69,196.04h-26.4L42.99,57.52h-.65v196.04H13V17.92h42.38Z"/>
  <path class="cls-1" d="m327.88,253.56L413.28,16.92h33.58l85.08,236.63h-35.53l-66.17-201.65-67.15,201.65h-35.2Z"/>
  <path class="cls-1" d="m728,50.09c-10.32-7.59-23.52-11.39-39.61-11.39-6.52,0-12.93.66-19.23,1.98-6.31,1.32-11.9,3.53-16.79,6.6-4.89,3.09-8.8,7.21-11.73,12.37-2.93,5.18-4.4,11.61-4.4,19.31,0,7.26,2.12,13.15,6.36,17.65,4.24,4.51,9.88,8.21,16.95,11.06,7.06,2.86,15.04,5.23,23.96,7.1,8.91,1.87,17.98,3.91,27.22,6.1,9.23,2.2,18.31,4.79,27.22,7.76,8.91,2.97,16.89,6.99,23.96,12.05,7.06,5.06,12.71,11.44,16.95,19.14,4.24,7.7,6.36,17.38,6.36,29.04,0,12.54-2.77,23.27-8.31,32.18s-12.66,16.17-21.35,21.78c-8.69,5.61-18.42,9.68-29.17,12.21-10.76,2.53-21.46,3.8-32.11,3.8-13.04,0-25.37-1.65-37-4.96-11.63-3.3-21.84-8.3-30.64-15.01-8.8-6.71-15.76-15.29-20.86-25.74-5.11-10.45-7.66-22.82-7.66-37.12h29.34c0,9.9,1.9,18.42,5.7,25.58,3.8,7.15,8.8,13.03,14.99,17.65,6.19,4.63,13.42,8.04,21.68,10.23,8.26,2.2,16.73,3.3,25.43,3.3,6.95,0,13.96-.66,21.02-1.98,7.06-1.32,13.42-3.57,19.07-6.77,5.65-3.18,10.21-7.53,13.69-13.03,3.48-5.5,5.22-12.54,5.22-21.12,0-8.14-2.12-14.74-6.36-19.8s-9.89-9.19-16.95-12.37c-7.06-3.19-15.05-5.78-23.96-7.76-8.91-1.98-17.99-4.02-27.22-6.11-9.24-2.09-18.31-4.51-27.22-7.26-8.91-2.75-16.9-6.38-23.96-10.89-7.07-4.51-12.71-10.34-16.95-17.49s-6.36-16.11-6.36-26.9c0-11.88,2.39-22.16,7.17-30.86,4.77-8.69,11.13-15.84,19.07-21.45,7.93-5.61,16.95-9.78,27.06-12.54,10.1-2.75,20.48-4.13,31.13-4.13,11.95,0,23.03,1.44,33.25,4.29,10.21,2.86,19.18,7.37,26.89,13.53,7.71,6.16,13.8,13.92,18.25,23.27,4.45,9.35,6.9,20.51,7.33,33.49h-29.34c-1.74-16.93-7.77-29.2-18.09-36.8Z"/>
  <path class="cls-1" d="m988.12,50.09c-10.32-7.59-23.52-11.39-39.61-11.39-6.52,0-12.93.66-19.23,1.98-6.31,1.32-11.9,3.53-16.79,6.6-4.89,3.09-8.8,7.21-11.73,12.37-2.93,5.18-4.4,11.61-4.4,19.31,0,7.26,2.12,13.15,6.36,17.65,4.24,4.51,9.88,8.21,16.95,11.06,7.06,2.86,15.04,5.23,23.96,7.1,8.91,1.87,17.98,3.91,27.22,6.1,9.23,2.2,18.31,4.79,27.22,7.76,8.91,2.97,16.89,6.99,23.96,12.05,7.06,5.06,12.71,11.44,16.95,19.14s6.36,17.38,6.36,29.04c0,12.54-2.77,23.27-8.31,32.18s-12.66,16.17-21.35,21.78c-8.69,5.61-18.42,9.68-29.17,12.21-10.76,2.53-21.46,3.8-32.11,3.8-13.04,0-25.37-1.65-37-4.96-11.63-3.3-21.84-8.3-30.64-15.01-8.8-6.71-15.76-15.29-20.86-25.74-5.11-10.45-7.66-22.82-7.66-37.12h29.34c0,9.9,1.9,18.42,5.7,25.58,3.8,7.15,8.8,13.03,14.99,17.65,6.19,4.63,13.42,8.04,21.68,10.23,8.26,2.2,16.73,3.3,25.43,3.3,6.95,0,13.96-.66,21.02-1.98,7.06-1.32,13.42-3.57,19.07-6.77,5.65-3.18,10.21-7.53,13.69-13.03,3.48-5.5,5.22-12.54,5.22-21.12,0-8.14-2.12-14.74-6.36-19.8s-9.89-9.19-16.95-12.37c-7.06-3.19-15.05-5.78-23.96-7.76-8.91-1.98-17.99-4.02-27.22-6.11-9.24-2.09-18.31-4.51-27.22-7.26-8.91-2.75-16.9-6.38-23.96-10.89-7.07-4.51-12.71-10.34-16.95-17.49-4.24-7.15-6.36-16.11-6.36-26.9,0-11.88,2.39-22.16,7.17-30.86,4.77-8.69,11.13-15.84,19.07-21.45,7.93-5.61,16.95-9.78,27.06-12.54,10.1-2.75,20.48-4.13,31.13-4.13,11.95,0,23.03,1.44,33.25,4.29,10.21,2.86,19.18,7.37,26.89,13.53,7.71,6.16,13.8,13.92,18.25,23.27,4.45,9.35,6.9,20.51,7.33,33.49h-29.34c-1.74-16.93-7.77-29.2-18.09-36.8Z"/>
  <path class="cls-1" d="m1114.43,253.56l85.4-236.63h33.58l85.08,236.63h-35.53l-66.17-201.65-67.15,201.65h-35.2Z"/>
  <path class="cls-1" d="m1538.18,250.75c-13.48,5.39-27.05,8.09-40.75,8.09-17.39,0-32.92-3.25-46.61-9.74-13.69-6.49-25.32-15.24-34.88-26.24-9.56-11-16.84-23.65-21.84-37.95-5-14.3-7.5-29.15-7.5-44.56,0-17.16,2.33-33.5,7.01-49.01,4.67-15.51,11.62-29.09,20.86-40.76,9.23-11.66,20.75-20.96,34.55-27.89,13.8-6.93,29.94-10.39,48.41-10.39,12.6,0,24.5,1.48,35.69,4.46,11.19,2.97,21.19,7.65,29.99,14.03,8.8,6.38,16.19,14.47,22.17,24.25,5.98,9.8,10.05,21.62,12.22,35.48h-30.97c-1.52-9.02-4.34-16.77-8.48-23.27-4.12-6.49-9.24-11.82-15.32-16.01-6.08-4.18-12.99-7.31-20.7-9.41-7.71-2.09-15.92-3.14-24.61-3.14-14.13,0-26.24,2.87-36.34,8.58-10.11,5.73-18.37,13.26-24.78,22.61-6.41,9.35-11.14,20.02-14.18,32.02-3.04,11.99-4.56,24.26-4.56,36.8s1.74,24.15,5.22,35.48c3.47,11.33,8.58,21.35,15.32,30.03,6.73,8.7,15.04,15.62,24.94,20.8,9.88,5.17,21.35,7.76,34.39,7.76,12.17,0,22.93-1.98,32.27-5.94,9.34-3.96,17.22-9.41,23.64-16.34,6.41-6.93,11.25-15.07,14.5-24.42,3.26-9.35,4.67-19.42,4.24-30.2h-74.32v-26.4h102.03v124.09h-19.56l-8.15-29.37c-9.13,12.32-20.43,21.18-33.9,26.56Z"/>
  <path class="cls-1" d="m1855.03,17.92v26.4h-129.74v74.91h120.94v26.41h-120.94v81.51h130.71v26.4h-161.68V17.92h160.7Z"/>
</svg>